<svg xmlns="http://www.w3.org/2000/svg" xmlns:xlink="http://www.w3.org/1999/xlink" width="500" zoomAndPan="magnify" viewBox="0 0 375 374.999991" height="500" preserveAspectRatio="xMidYMid meet" version="1.0"><defs><clipPath id="e626bd65ae"><path d="M 78 199 L 248 199 L 248 367.828125 L 78 367.828125 Z M 78 199 " clip-rule="nonzero"/></clipPath><clipPath id="d8484e9dc9"><path d="M 37.5 22 L 121 22 L 121 245 L 37.5 245 Z M 37.5 22 " clip-rule="nonzero"/></clipPath><clipPath id="517c2d9f09"><path d="M 243 93 L 336.75 93 L 336.75 184 L 243 184 Z M 243 93 " clip-rule="nonzero"/></clipPath><clipPath id="b44b93bba8"><path d="M 137 7.078125 L 314 7.078125 L 314 77 L 137 77 Z M 137 7.078125 " clip-rule="nonzero"/></clipPath></defs><g clip-path="url(#e626bd65ae)"><path fill="#de0050" d="M 78.480469 257.957031 C 110.0625 298.378906 153.855469 334.0625 187.117188 367.882812 C 205.222656 349.480469 226.382812 330.53125 247.09375 310.574219 L 136.464844 199.945312 Z M 78.480469 257.957031 " fill-opacity="1" fill-rule="evenodd"/></g><g clip-path="url(#d8484e9dc9)"><path fill="#ec6b2c" d="M 120.59375 22.664062 C 117.496094 24.199219 114.453125 25.84375 111.472656 27.59375 C 108.488281 29.339844 105.570312 31.191406 102.714844 33.140625 C 99.859375 35.09375 97.074219 37.140625 94.363281 39.285156 C 91.652344 41.429688 89.015625 43.664062 86.457031 45.992188 C 83.902344 48.320312 81.425781 50.730469 79.039062 53.230469 C 76.648438 55.730469 74.347656 58.308594 72.136719 60.964844 C 69.925781 63.625 67.808594 66.355469 65.789062 69.160156 C 63.769531 71.964844 61.847656 74.835938 60.023438 77.773438 C 58.203125 80.710938 56.484375 83.710938 54.871094 86.769531 C 53.257812 89.824219 51.753906 92.933594 50.355469 96.097656 C 48.957031 99.257812 47.671875 102.464844 46.496094 105.714844 C 45.320312 108.964844 44.261719 112.253906 43.3125 115.578125 C 42.367188 118.902344 41.535156 122.257812 40.824219 125.640625 C 40.109375 129.019531 39.511719 132.421875 39.035156 135.847656 C 38.558594 139.269531 38.199219 142.707031 37.960938 146.15625 C 37.722656 149.601562 37.601562 153.054688 37.601562 156.511719 C 37.601562 188.410156 49.941406 217.394531 68.453125 244.25 L 120.59375 192.085938 Z M 120.59375 22.664062 " fill-opacity="1" fill-rule="evenodd"/></g><g clip-path="url(#517c2d9f09)"><path fill="#62b334" d="M 333.730469 183.296875 C 335.664062 174.472656 336.636719 165.546875 336.648438 156.511719 C 336.652344 145.601562 335.472656 134.820312 333.109375 124.171875 C 330.742188 113.519531 327.25 103.253906 322.625 93.371094 L 243.742188 93.371094 Z M 333.730469 183.296875 " fill-opacity="1" fill-rule="evenodd"/></g><g clip-path="url(#b44b93bba8)"><path fill="#00a1b5" d="M 187.117188 7.078125 C 178.640625 7.070312 170.222656 7.78125 161.863281 9.207031 C 153.507812 10.632812 145.332031 12.753906 137.335938 15.570312 L 137.335938 76.621094 L 313.496094 76.621094 C 311.820312 73.972656 310.058594 71.375 308.21875 68.835938 C 306.378906 66.296875 304.460938 63.816406 302.464844 61.398438 C 300.46875 58.976562 298.398438 56.625 296.253906 54.335938 C 294.109375 52.046875 291.894531 49.828125 289.609375 47.675781 C 287.324219 45.527344 284.976562 43.453125 282.558594 41.449219 C 280.144531 39.449219 277.667969 37.527344 275.132812 35.679688 C 272.59375 33.835938 270.003906 32.070312 267.355469 30.386719 C 264.707031 28.707031 262.007812 27.109375 259.261719 25.59375 C 256.511719 24.082031 253.71875 22.660156 250.878906 21.320312 C 248.042969 19.984375 245.164062 18.738281 242.246094 17.582031 C 239.332031 16.429688 236.378906 15.367188 233.398438 14.394531 C 230.414062 13.425781 227.402344 12.550781 224.363281 11.769531 C 221.324219 10.992188 218.261719 10.308594 215.179688 9.71875 C 212.097656 9.132812 209 8.644531 205.886719 8.25 C 202.773438 7.859375 199.652344 7.5625 196.523438 7.367188 C 193.390625 7.171875 190.253906 7.074219 187.117188 7.078125 Z M 187.117188 7.078125 " fill-opacity="1" fill-rule="evenodd"/></g><path fill="#f5bd1d" d="M 259.042969 298.785156 C 288.492188 269.199219 315.386719 237.296875 328.386719 201.628906 L 219.734375 93.035156 L 178.578125 93.511719 L 137.417969 93.972656 L 136.941406 135.109375 L 136.464844 176.230469 L 259.042969 298.757812 Z M 158.074219 114.648438 C 158.695312 114.027344 159.367188 113.476562 160.097656 112.988281 C 160.824219 112.5 161.59375 112.089844 162.402344 111.753906 C 163.210938 111.417969 164.046875 111.164062 164.902344 110.996094 C 165.761719 110.824219 166.628906 110.738281 167.507812 110.738281 C 168.382812 110.738281 169.25 110.820312 170.109375 110.992188 C 170.96875 111.164062 171.800781 111.414062 172.613281 111.75 C 173.421875 112.085938 174.191406 112.496094 174.917969 112.980469 C 175.648438 113.46875 176.320312 114.019531 176.941406 114.640625 C 177.558594 115.257812 178.113281 115.929688 178.601562 116.660156 C 179.085938 117.386719 179.496094 118.15625 179.832031 118.964844 C 180.167969 119.773438 180.421875 120.605469 180.59375 121.464844 C 180.761719 122.324219 180.847656 123.191406 180.847656 124.066406 C 180.847656 124.941406 180.761719 125.808594 180.59375 126.667969 C 180.421875 127.527344 180.167969 128.359375 179.832031 129.167969 C 179.496094 129.976562 179.085938 130.746094 178.601562 131.472656 C 178.113281 132.199219 177.558594 132.875 176.941406 133.492188 C 176.320312 134.113281 175.648438 134.664062 174.917969 135.152344 C 174.191406 135.636719 173.421875 136.046875 172.613281 136.382812 C 171.800781 136.714844 170.96875 136.96875 170.109375 137.140625 C 169.25 137.308594 168.382812 137.394531 167.507812 137.394531 C 166.628906 137.394531 165.761719 137.308594 164.902344 137.136719 C 164.046875 136.964844 163.210938 136.710938 162.402344 136.378906 C 161.59375 136.042969 160.824219 135.628906 160.097656 135.144531 C 159.367188 134.65625 158.695312 134.105469 158.074219 133.484375 C 157.457031 132.867188 156.902344 132.195312 156.417969 131.464844 C 155.929688 130.738281 155.519531 129.972656 155.1875 129.164062 C 154.851562 128.355469 154.597656 127.523438 154.425781 126.664062 C 154.257812 125.808594 154.171875 124.941406 154.171875 124.066406 C 154.171875 123.191406 154.257812 122.324219 154.425781 121.46875 C 154.597656 120.609375 154.851562 119.777344 155.1875 118.96875 C 155.519531 118.160156 155.929688 117.390625 156.417969 116.664062 C 156.902344 115.9375 157.457031 115.265625 158.074219 114.648438 Z M 158.074219 114.648438 " fill-opacity="1" fill-rule="evenodd"/></svg>